HIERARCHY
ROOT Hips
{
  OFFSET -187.679 86.5976 -156.378
  CHANNELS 6 Xposition Yposition Zposition Zrotation Xrotation Yrotation
  JOINT LeftUpLeg
  {
    OFFSET 8.64259 1.95398 -2.38835
    CHANNELS 3 Zrotation Xrotation Yrotation
    JOINT LeftLeg
    {
      OFFSET 43.7702 0 0
      CHANNELS 3 Zrotation Xrotation Yrotation
      JOINT LeftFoot
      {
        OFFSET 40.6238 0 0
        CHANNELS 3 Zrotation Xrotation Yrotation
        JOINT LeftToeBase
        {
          OFFSET 12.7242 0 0
          CHANNELS 3 Zrotation Xrotation Yrotation
          End Site
          {
            OFFSET 0 0 0
          }
        }
      }
    }
  }
  JOINT RightUpLeg
  {
    OFFSET -8.2249 1.95398 -2.59336
    CHANNELS 3 Zrotation Xrotation Yrotation
    JOINT RightLeg
    {
      OFFSET 43.5653 0 0
      CHANNELS 3 Zrotation Xrotation Yrotation
      JOINT RightFoot
      {
        OFFSET 40.6238 0 0
        CHANNELS 3 Zrotation Xrotation Yrotation
        JOINT RightToeBase
        {
          OFFSET 12.7242 0 0
          CHANNELS 3 Zrotation Xrotation Yrotation
          End Site
          {
            OFFSET 0 0 0
          }
        }
      }
    }
  }
  JOINT Spine
  {
    OFFSET 0.165834 0.87714 6.61349
    CHANNELS 3 Zrotation Xrotation Yrotation
    JOINT Spine1
    {
      OFFSET 7.38963 1.71661e-005 0
      CHANNELS 3 Zrotation Xrotation Yrotation
      JOINT Spine2
      {
        OFFSET 11.9445 1.14441e-005 0
        CHANNELS 3 Zrotation Xrotation Yrotation
        JOINT Spine3
        {
          OFFSET 14.7254 4.19617e-005 0
          CHANNELS 3 Zrotation Xrotation Yrotation
          JOINT Spine4
          {
            OFFSET 10.9679 0 0
            CHANNELS 3 Zrotation Xrotation Yrotation
            JOINT RightShoulder
            {
              OFFSET 2.46616 -1.6653 3.69651
              CHANNELS 3 Zrotation Xrotation Yrotation
              JOINT RightArm
              {
                OFFSET 13.0012 0 0
                CHANNELS 3 Zrotation Xrotation Yrotation
                JOINT RightForeArm
                {
                  OFFSET 28.7848 1.52588e-005 0
                  CHANNELS 3 Zrotation Xrotation Yrotation
                  JOINT RightHand
                  {
                    OFFSET 26.5688 1.52588e-005 0
                    CHANNELS 3 Zrotation Xrotation Yrotation
                    End Site
                    {
                      OFFSET 0 0 0
                    }
                  }
                }
              }
            }
            JOINT LeftShoulder
            {
              OFFSET 2.38034 -1.29275 -3.7523
              CHANNELS 3 Zrotation Xrotation Yrotation
              JOINT LeftArm
              {
                OFFSET 16.3182 6.10352e-005 0
                CHANNELS 3 Zrotation Xrotation Yrotation
                JOINT LeftForeArm
                {
                  OFFSET 27.0901 0 0
                  CHANNELS 3 Zrotation Xrotation Yrotation
                  JOINT LeftHand
                  {
                    OFFSET 24.5451 1.52588e-005 0
                    CHANNELS 3 Zrotation Xrotation Yrotation
                    End Site
                    {
                      OFFSET 0 0 0
                    }
                  }
                }
              }
            }
            JOINT Neck
            {
              OFFSET 5.0226 -0.0266342 0
              CHANNELS 3 Zrotation Xrotation Yrotation
              JOINT Head
              {
                OFFSET 6.69363 2.86102e-005 0
                CHANNELS 3 Zrotation Xrotation Yrotation
                End Site
                {
                  OFFSET 0 0 0
                }
              }
            }
          }
        }
      }
    }
  }
}
MOTION
Frames:	12
Frame Time:	0.0416667
19.7057 99.1567 -10.5843 159.048 -81.3011 158.912 -178.837 14.6156 86.9982 -8.19869 -7.32944 4.32282 60.8439 2.22292 -1.65698 16.5627 -5.96366 2.36002 172.943 -11.8156 89.3959 -21.3401 6.08899 1.99782 75.256 -3.85734 0.0966448 28.6279 -0.886737 2.96136 1.45134 8.21845 -89.8468 10.4391 2.96136 0.0436466 -1.22842 2.96042 -0.0868503 -23.7887 2.81123 0.932354 -3.77606 2.81123 0.932345 86.3073 -45.4725 -107.647 9.05234 -21.1821 -29.1092 -21.8957 -19.8479 -26.1497 -9.47839 -0.0896728 -4.09576 -88.4734 -48.8301 81.0089 -37.0628 15.1932 15.1299 13.0418 0.7485 -22.7906 -6.94441 -0.127127 -3.16223 -1.7928 -2.5329 4.4263 9.61177 -3.27387 -2.09921 
21.5368 98.3701 -3.15971 156.026 -80.3958 156.299 -178.35 14.4895 85.644 -12.9999 -10.9276 3.49666 58.7087 0.346175 -0.983683 15.9283 -6.06211 1.97855 171.042 -17.3933 87.5256 -20.3808 4.88647 2.42188 74.0417 -4.44715 -0.546123 33.3779 -0.193827 3.66624 1.53671 8.09662 -89.8628 10.6839 3.12356 -0.0125837 -0.983279 3.11998 -0.15019 -23.5467 2.9828 0.927604 -3.53402 2.9828 0.927607 85.3953 -46.4491 -108.763 11.5681 -19.9534 -28.9863 -21.1916 -18.2743 -25.1074 -10.2496 -0.0997678 -4.03812 -87.1004 -48.323 83.0071 -37.666 12.3763 15.0872 12.6967 -0.196179 -22.2724 -6.33075 -0.133765 -2.82697 -2.73094 -0.881254 4.96093 9.15927 -1.61424 -1.6014 
23.9442 98.5691 4.6076 149.069 -79.6048 149.305 -177.118 16.9839 83.8765 -26.5671 -5.56529 2.82008 64.764 1.1341 0.691446 4.28867 -9.23733 -1.65314 167.889 -18.012 83.9964 -25.7089 1.57354 2.66575 65.9863 -2.85238 -0.116072 41.9428 1.43086 3.34991 1.53295 7.89329 -89.7444 11.0881 3.17004 0.202434 -0.578969 3.17588 0.0625648 -23.1421 2.96252 1.14663 -3.12942 2.96252 1.14663 83.6965 -48.5258 -110.67 16.3311 -20.8185 -26.2474 -19.5863 -19.2457 -21.6718 -9.14761 0.00326876 -5.294 -85.9729 -47.0688 84.5376 -37.24 10.0711 13.2602 12.5885 -0.483504 -21.1717 -5.16644 -0.129142 -2.42449 -2.77822 1.11348 4.83814 8.11625 0.390145 -1.56057 
27.0457 98.6301 11.1875 145.929 -77.3888 144.459 -176.766 13.2337 80.5566 -31.3504 -4.99696 2.47176 70.4546 3.72806 1.41193 3.61641 -9.53473 -1.63352 165.777 -8.52859 78.8688 -46.9826 -6.3483 -0.35437 56.547 0.0334374 -0.0530307 34.5447 -0.429871 6.06673 1.49557 7.98741 -89.5488 10.8936 3.18636 0.598549 -0.773512 3.20961 0.457586 -23.3341 2.85906 1.52921 -3.32142 2.85906 1.52921 82.8814 -48.9992 -111.737 21.1732 -23.2024 -22.4096 -18.3929 -21.1253 -19.6407 -7.91513 0.0831664 -6.68877 -85.9156 -46.5593 84.5471 -34.5133 9.48013 9.21436 12.7793 -0.557268 -21.3776 -4.30909 -0.110901 -2.63424 -2.89103 3.23608 6.653 8.69325 2.21502 -2.13534 
30.0497 98.4359 16.3227 137.268 -74.1533 134.653 -176.877 9.24152 77.8935 -33.7964 -2.45113 2.86349 73.9698 5.27176 2.46037 4.57519 -8.85278 -2.06836 170.072 2.06211 79.4356 -65.5939 -9.6414 -4.73068 56.9144 -0.144716 0.728316 24.8925 -1.7262 3.44342 1.29397 8.14326 -89.4641 10.578 2.82357 0.810927 -1.09002 2.85651 0.685782 -23.6428 2.44926 1.62243 -3.63014 2.44927 1.62243 83.4827 -48.9328 -110.852 25.4018 -23.5529 -18.322 -19.1111 -22.4754 -20.4957 -7.09925 0.103031 -7.18554 -86.6913 -47.1232 83.4301 -28.6713 8.78151 3.87625 14.6886 1.91747 -24.809 -3.78983 -0.100522 -3.06855 -3.67215 5.18976 9.64144 9.54696 3.77152 -2.89973 
32.6523 98.7283 20.4637 121.467 -68.0406 119.915 -177.196 5.95505 77.6844 -34.4964 4.77061 4.63205 76.0061 6.89256 3.4283 4.12152 -8.88567 -2.33958 175.876 9.43508 83.6881 -68.6377 -0.715847 -5.76076 62.587 -1.95572 -1.52032 22.0179 -2.75208 4.79592 0.837427 8.16085 -89.6614 10.5487 1.8235 0.509515 -1.12105 1.84418 0.428731 -23.6636 1.58606 1.0341 -3.65097 1.58606 1.0341 84.9885 -48.8858 -108.582 28.4116 -20.6349 -12.9037 -20.0987 -21.4019 -21.5503 -7.46467 0.037365 -5.97602 -87.7161 -48.3315 82.0677 -21.2877 8.6133 -2.77606 15.9078 2.92959 -27.2394 -3.78142 -0.0979963 -3.27283 -5.22951 6.8776 10.399 10.0182 5.69151 -1.14824 
35.6917 99.7302 24.4393 109.464 -56.8696 109.401 -177.637 0.674457 79.1855 -32.5798 15.992 7.47141 76.2902 7.83005 2.83439 4.30545 -9.19543 -1.69522 179.809 12.208 87.6015 -58.5452 8.42345 -6.23737 70.0241 -4.42456 -2.06873 16.0608 -3.18879 2.82584 0.0932217 8.20769 -89.9175 10.4585 0.223656 0.145039 -1.21242 0.229813 0.135043 -23.7474 0.169711 0.205548 -3.73479 0.169707 0.205542 85.7402 -48.7077 -107.49 29.6033 -17.1912 -6.77122 -19.7972 -19.6775 -20.4276 -8.12622 0.0251596 -5.72136 -88.2473 -46.9288 80.9813 -17.7448 9.63507 -10.7917 15.5663 2.40144 -26.7993 -3.30498 -0.0909195 -3.59214 -5.36459 7.52618 9.37557 9.9606 6.58367 0.144447 
38.7994 100.365 27.8532 100.821 -43.3292 102.757 -176.885 -1.87029 82.6235 -33.6346 31.4761 10.7479 75.9158 8.82756 3.37916 2.66713 -8.92353 -3.29231 -179.321 15.2464 90.1816 -44.0273 6.46617 -5.17579 68.3309 -3.81252 -2.00754 18.8268 -2.5796 2.62584 -0.625446 8.15366 -90.2079 10.5663 -1.3413 -0.29258 -1.10393 -1.35287 -0.233269 -23.6435 -1.19135 -0.682218 -3.63083 -1.19137 -0.682227 87.5978 -48.5011 -104.698 30.503 -14.9439 -1.90366 -18.7874 -18.7468 -17.8958 -8.15353 -0.0312534 -4.85868 -88.9672 -44.5405 79.3459 -16.4211 12.7284 -20.9338 14.8746 3.08786 -23.5194 -1.2488 -0.0774775 -3.1724 -3.10184 7.10679 5.134 8.6653 6.75888 3.2391 
42.3919 100.264 31.0781 97.403 -32.9298 99.8448 -175.104 -4.07783 85.8932 -36.2124 43.5671 12.8247 77.3927 10.5656 4.0965 -0.448007 -9.11584 -5.05238 179.833 17.4228 92.3473 -28.7744 2.12736 -2.13309 64.4539 -2.66289 0.800897 21.8264 -1.23923 0.427454 -0.855435 8.22465 -90.3317 10.4209 -1.8561 -0.495778 -1.24882 -1.87612 -0.413582 -23.7918 -1.62126 -1.0308 -3.77918 -1.62128 -1.03082 87.5705 -49.3222 -104.508 30.5314 -14.3731 2.35366 -17.613 -17.1732 -15.7484 -7.37697 0.00998207 -5.51939 -89.2355 -41.8809 78.2964 -17.0428 16.8097 -30.0287 14.7396 4.56652 -21.5839 -1.52326 -0.073708 -3.63066 -0.050213 5.76004 0.397664 7.79246 6.0207 4.42471 
46.9493 99.2207 34.3843 95.8517 -26.6701 97.4507 -173.52 -6.24141 87.8918 -39.3786 51.9887 14.1555 78.1944 12.373 5.39663 -1.12393 -9.12645 -5.46441 179.354 17.6453 94.8614 -13.3992 0.727 0.717195 61.7993 -2.00277 0.521014 29.2324 -0.228527 1.05783 -0.931749 8.25055 -90.2593 10.3707 -1.97475 -0.342725 -1.29875 -1.98795 -0.255442 -23.8438 -1.78045 -0.920553 -3.83113 -1.78043 -0.920547 86.6624 -50.327 -105.6 29.8684 -15.7548 3.9038 -16.6645 -17.1814 -14.6288 -7.93697 -0.024529 -4.9387 -89.5908 -41.6203 77.6508 -18.7122 18.7738 -31.9844 16.3918 6.73901 -24.5841 -1.54046 -0.0774909 -3.69634 1.82297 5.53907 -3.60204 7.6513 6.46429 5.18663 
53.2099 97.6957 37.966 94.7972 -20.8912 96.0245 -171.223 -9.65313 91.1433 -42.8831 60.4753 16.3619 78.3509 14.1189 7.13077 -2.81265 -9.65439 -5.71902 -179.042 20.5262 97.4113 -15.6926 -4.92167 0.0617331 60.8943 -1.36483 0.200309 30.6059 0.124654 0.546524 -1.14405 8.14751 -90.2516 10.5777 -2.39429 -0.284997 -1.09108 -2.40447 -0.179296 -23.6415 -2.19789 -0.991734 -3.62888 -2.19789 -0.991732 87.0504 -50.4788 -104.972 29.1776 -15.948 3.26284 -17.4803 -16.9917 -16.3362 -6.52361 0.0180883 -5.75614 -89.8611 -41.9409 77.2884 -21.0037 22.0373 -29.4898 16.1584 6.50826 -24.5455 -0.849483 -0.0823186 -3.58602 2.6181 5.56197 -5.27617 7.72032 6.73886 4.74271 
61.8151 96.7692 41.4665 95.4517 -15.6622 96.9476 -168.194 -16.0622 96.2764 -45.2214 65.6963 21.7024 73.8564 11.092 7.4279 1.39079 -4.70994 -11.0585 -176.191 23.4113 99.9412 -30.2849 -8.27665 -3.16837 59.8961 -0.773108 0.248892 26.3583 -0.984878 1.98541 -1.26775 8.06992 -90.5353 10.7274 -2.77118 -0.807715 -0.940722 -2.80404 -0.68489 -23.4928 -2.4003 -1.6036 -3.48018 -2.40028 -1.60359 87.542 -50.6986 -104.17 27.1166 -14.3052 2.37614 -19.3748 -16.7413 -19.6187 -6.61711 -0.0338572 -4.80907 -90.3661 -43.6389 76.9018 -25.579 24.9209 -23.5735 13.2013 5.83909 -17.7309 -1.65485 -0.0813443 -3.27984 3.14534 5.72721 -3.69998 7.48998 6.5772 3.94181 
